<?xml version="1.0" encoding="UTF-8"?>
<svg id="Layer_1" data-name="Layer 1" xmlns="http://www.w3.org/2000/svg" viewBox="0 0 1000 1000">
  <defs>
    <style>
      .cls-1 {
        fill: #1fb1e7;
        stroke-width: 0px;
      }
    </style>
  </defs>
  <g>
    <rect class="cls-1" x="304.85" y="628.68" width="99.9" height="122.1"/>
    <path class="cls-1" d="m622.92,463.55c0-41.84-14.99-76.8-44.33-106.15-29.35-29.35-65.56-43.71-108.65-43.71h-165.47v189.53h99.9v-95.87h65.56c30.6,0,53.08,24.35,53.08,56.2s-22.48,56.19-53.08,56.19H194.25V180.33h-98.81v432.3h98.81v-.48h296.79c33.93-4.03,63.13-18.04,87.55-42.46,29.35-29.35,44.33-64.31,44.33-106.15Z"/>
    <path class="cls-1" d="m718.86,191.2h-125.99l-41.4,121.76c19.59,9.53,55.54,33.11,74.98,83.44l29.41-92.19,50.64,158.71h-65.88c.83,26.71-4.27,61.35-27.94,92.64h123.47l21.62,67.93h108.08l-146.98-432.3Z"/>
  </g>
  <g>
    <path class="cls-1" d="m786.87,181.87c0,6.01-3.42,9.02-10.26,9.02h-10.26v-60.95c0-6.01,3.42-9.02,10.26-9.02h10.26v60.95Z"/>
    <path class="cls-1" d="m856.26,178.32c0,2.51-1.99,5.33-5.96,8.47-3.97,3.14-11.33,4.72-22.08,4.72s-19.59-3.34-26.53-10.03c-6.94-6.68-10.42-15.43-10.42-26.25s3.45-19.58,10.36-26.3c6.91-6.72,15.81-10.08,26.72-10.08s18.28,1.57,22.13,4.72c3.85,3.14,5.78,5.97,5.78,8.47s-.83,4.73-2.49,6.68c-1.66,1.95-3.48,2.93-5.47,2.93s-5.13-.76-9.43-2.28c-4.3-1.52-7.52-2.28-9.67-2.28-11.61,0-17.41,6.03-17.41,18.09s5.8,18.09,17.41,18.09c2.14,0,5.36-.76,9.67-2.28,4.3-1.52,7.44-2.28,9.43-2.28s3.81.98,5.47,2.93c1.66,1.95,2.49,4.18,2.49,6.68Z"/>
    <path class="cls-1" d="m861.44,190.89v-69.96h43.12v8.24c0,5.49-2.66,8.24-7.98,8.24h-14.61v10.05h20.52v8.29c0,5.53-2.66,8.29-7.98,8.29h-12.54v10.37h22.6v8.24c0,5.49-2.66,8.24-7.98,8.24h-35.14Z"/>
  </g>
  <g>
    <path class="cls-1" d="m142.14,880.02h-30.66c-7.97,0-11.95-3.5-11.95-10.5v-70.99h11.95c7.97,0,11.95,3.5,11.95,10.51v51.79h26.2v9.6c0,6.4-2.49,9.6-7.49,9.6Z"/>
    <path class="cls-1" d="m219.89,857.93c0,7.69-3.27,13.39-9.81,17.11-6.54,3.72-13.97,5.58-22.3,5.58s-15.77-1.86-22.3-5.58c-6.54-3.72-9.81-9.43-9.81-17.11v-59.4h11.95c7.97,0,11.95,3.5,11.95,10.51v45.39c0,4.59,2.74,6.88,8.21,6.88s8.21-2.3,8.21-6.88v-55.9h11.95c7.97,0,11.95,3.5,11.95,10.51v48.89Z"/>
    <path class="cls-1" d="m290.15,857.93c0,7.69-3.27,13.39-9.81,17.11-6.54,3.72-13.97,5.58-22.3,5.58s-15.77-1.86-22.3-5.58c-6.54-3.72-9.81-9.43-9.81-17.11v-59.4h11.95c7.97,0,11.95,3.5,11.95,10.51v45.39c0,4.59,2.74,6.88,8.21,6.88s8.21-2.3,8.21-6.88v-55.9h11.95c7.97,0,11.95,3.5,11.95,10.51v48.89Z"/>
    <path class="cls-1" d="m350.03,852.86v16.66c0,7-3.98,10.5-11.95,10.5h-11.95v-81.25h38.99c6.72,0,12.34,2.65,16.87,7.94,4.53,5.29,6.7,11.59,6.52,18.9-.18,7.3-2.69,13.67-7.52,19.1-4.83,5.43-11.09,8.15-18.77,8.15h-12.19Zm0-37.91v18.59h6.88c6.76,0,10.14-3.1,10.14-9.29s-3.38-9.3-10.14-9.3h-6.88Z"/>
    <path class="cls-1" d="m457.72,798.53v70.99c0,7-3.98,10.5-11.95,10.5s-11.95-3.5-11.95-10.5v-20.77h-16.3v20.77c0,7-3.98,10.5-11.95,10.5h-11.95v-81.49h11.95c7.97,0,11.95,3.5,11.95,10.51v20.4h16.3v-20.4c0-7,3.98-10.51,11.95-10.51h11.95Z"/>
    <path class="cls-1" d="m503.2,769.17c-3,.66-5.46,2.58-7.39,5.76-1.93,3.18-3.69,6.61-5.28,10.29-1.59,3.68-1.04,6.55,1.66,8.6l4.65,4.65c6.76-5.07,11.57-8.81,14.43-11.23,2.86-2.42,4.15-5.25,3.86-8.51s-1.59-5.84-3.92-7.73c-2.33-1.89-5-2.51-8-1.84Z"/>
    <path class="cls-1" d="m590.27,817.73v51.91c0,7-3.98,10.5-11.95,10.5h-11.95v-62.41h-12.07c-6.44,0-9.66-3.2-9.66-9.6v-9.6h57.83c6.44,0,9.66,3.2,9.66,9.6s-3.22,9.6-9.66,9.6h-12.19Z"/>
    <path class="cls-1" d="m776.43,834.87v-25.83c0-7,3.98-10.51,11.95-10.51h11.95v70.99c0,7-3.98,10.5-11.95,10.5-4.43,0-7.93-1.53-10.5-4.59l-26.8-31.87v25.96c0,7-3.98,10.5-11.95,10.5h-11.95v-81.43l11.95-.06c5.11-.04,8.77,1.61,10.99,4.95l26.32,31.39Z"/>
    <path class="cls-1" d="m870.48,798.53v70.99c0,7-3.98,10.5-11.95,10.5s-11.95-3.5-11.95-10.5v-20.77h-16.3v20.77c0,7-3.98,10.5-11.95,10.5h-11.95v-81.49h11.95c7.97,0,11.95,3.5,11.95,10.51v20.4h16.3v-20.4c0-7,3.98-10.51,11.95-10.51h11.95Z"/>
  </g>
  <path class="cls-1" d="m223.32,797.79c-2.98,3.84-6.19,6.16-9.64,6.94l-2.77.63-2.54-6.64c2.26-.9,3.5-1.77,3.7-2.61-4.26-.92-7.05-3.62-8.39-8.1-1.34-4.48-1.24-8.14.28-10.99,1.52-2.85,4.01-4.72,7.46-5.61,3.45-.89,6.55-.44,9.31,1.36,2.76,1.79,4.62,5.45,5.6,10.98.98,5.52-.02,10.2-3,14.04Z"/>
  <path class="cls-1" d="m539.7,861.79l-25.67-55.93c-2.52-5.62-6.43-8.44-11.72-8.44h-7.93l-29.33,64.37c-1.04,2.28-1.55,4.58-1.55,6.94s1.04,5.03,3.13,7.98c2.08,2.95,5.54,4.44,10.35,4.44s8.28-2.82,10.39-8.44l2.36-6.33h25.29l2.36,6.33c2.11,5.62,5.62,8.44,10.52,8.44s8.36-1.47,10.39-4.4c2.03-2.93,3.03-5.59,3.03-7.95s-.54-4.68-1.62-7.01Zm-37.36-7.78c-3.12,0-5.64-2.52-5.64-5.64,0-.94.23-1.85.63-2.62.02-.03.03-.05.05-.08l5-13.64,5.34,14.51h-.02c.2.58.3,1.19.3,1.83,0,3.12-2.54,5.64-5.66,5.64Z"/>
  <path class="cls-1" d="m721.44,861.79l-25.67-55.93c-2.52-5.62-6.43-8.44-11.72-8.44h-7.93l-29.33,64.37c-1.04,2.28-1.55,4.58-1.55,6.94s1.04,5.03,3.13,7.98c2.08,2.95,5.54,4.44,10.35,4.44s8.28-2.82,10.39-8.44l2.36-6.33h25.29l2.36,6.33c2.11,5.62,5.62,8.44,10.52,8.44s8.36-1.47,10.39-4.4c2.03-2.93,3.03-5.59,3.03-7.95s-.54-4.68-1.62-7.01Zm-37.36-7.78c-3.12,0-5.64-2.52-5.64-5.64,0-.94.23-1.85.63-2.62.02-.03.03-.05.05-.08l5-13.64,5.34,14.51h-.02c.2.58.3,1.19.3,1.83,0,3.12-2.54,5.64-5.66,5.64Z"/>
</svg>